<svg version="1.1" id="Layer_1" xmlns="http://www.w3.org/2000/svg" xmlns:xlink="http://www.w3.org/1999/xlink" x="0px" y="0px"
	 width="100%" viewBox="0 0 1024 1024" enable-background="new 0 0 1024 1024" xml:space="preserve">
<path fill="#000000" opacity="1.000000" stroke="none" 
	d="
M707.972839,289.014587 
	C716.023376,287.979095 723.886047,286.271698 732.242371,287.243439 
	C750.763916,289.397308 757.941589,303.448853 759.267883,318.620087 
	C760.445740,332.092255 754.447266,341.726898 742.533142,347.775665 
	C735.723877,351.232666 730.356567,356.370728 725.116394,361.789703 
	C721.584839,365.441650 722.359497,369.423889 725.221436,371.925385 
	C730.878296,376.869843 733.588928,384.039978 739.042786,388.900940 
	C742.991638,392.420563 747.361877,395.797363 753.448669,394.430939 
	C756.613281,393.720490 757.789978,392.024048 757.740417,388.811646 
	C757.601624,379.814911 757.678650,370.814575 757.696411,361.815735 
	C757.711243,354.309601 758.986267,352.863617 766.290771,352.998566 
	C770.861755,353.082977 774.184998,352.278656 777.059875,347.864929 
	C781.333374,341.303955 789.210205,341.048340 794.840271,346.269897 
	C799.572266,350.658661 799.802429,359.280792 795.311401,363.920624 
	C790.389160,369.006012 782.004700,368.726654 777.056213,363.353821 
	C775.541138,361.708801 774.744690,359.488098 771.939453,358.993622 
	C765.343079,357.830994 764.294067,358.511810 764.282715,365.170166 
	C764.267273,374.168854 764.351624,383.168854 764.212891,392.165527 
	C764.163879,395.347961 764.884766,397.661285 768.200806,398.730804 
	C769.987671,399.307159 771.698181,400.446960 771.753235,402.516510 
	C771.825256,405.220978 773.750183,405.651489 775.613159,406.350250 
	C795.718994,413.891815 815.806091,421.483704 835.933716,428.966522 
	C846.263977,432.806976 846.942566,434.719330 838.798828,441.961395 
	C819.266113,459.331360 799.463074,476.397369 779.760986,493.576843 
	C776.874878,496.093445 774.041687,498.685852 771.008423,501.014526 
	C767.852173,503.437683 767.858643,505.508026 770.708496,508.273926 
	C782.544983,519.761475 794.224243,531.410828 806.012573,542.948425 
	C818.037292,554.717285 830.140930,566.405518 842.171814,578.168152 
	C847.395142,583.275024 847.296936,585.263428 840.736938,588.446960 
	C818.719177,599.131836 796.646362,609.711060 774.423157,619.959106 
	C769.135132,622.397644 767.154785,625.338867 767.190735,631.290833 
	C767.454895,675.117188 767.229187,718.946289 767.437378,762.773193 
	C767.466858,768.987732 765.156311,772.592529 759.781372,775.355896 
	C723.483826,794.016479 686.573486,811.415466 649.667236,828.809631 
	C605.383179,849.681030 560.856384,870.032715 515.719666,889.018738 
	C510.440857,891.239197 505.419403,890.902222 500.313965,888.458557 
	C442.781158,860.921570 385.234833,833.412781 327.682404,805.916809 
	C306.794647,795.937500 285.966522,785.826172 264.933197,776.162537 
	C257.409668,772.705933 254.512787,767.711243 254.567276,759.429993 
	C254.849121,716.603882 254.600174,673.774475 254.786957,630.947266 
	C254.809280,625.829590 253.088699,623.203735 248.488281,621.102966 
	C227.744614,611.630188 207.070587,601.993530 186.556091,592.035522 
	C177.648895,587.711975 177.497742,585.386536 184.535645,578.672058 
	C203.820496,560.273438 223.194412,541.968262 242.499908,523.591187 
	C245.369492,520.859619 248.540253,518.340088 250.291595,514.297729 
	C246.122360,508.845306 240.497665,504.884430 235.322922,500.527374 
	C216.843430,484.967834 198.459335,469.307220 180.751053,452.866821 
	C176.056870,448.508667 176.398758,445.988617 182.492722,443.630859 
	C203.294083,435.582672 224.109222,427.566254 245.011719,419.786560 
	C249.109299,418.261505 251.194321,416.517944 251.204880,411.694611 
	C251.233063,398.826660 253.257172,386.199432 257.821960,374.081146 
	C258.405945,372.530762 259.068970,370.961945 259.982208,369.593048 
	C262.500854,365.817566 264.446472,366.028503 266.544586,370.123047 
	C266.901733,370.820007 267.478699,371.404327 267.855713,371.909027 
	C269.834106,371.854156 269.752075,370.384094 270.070099,369.387238 
	C273.648285,358.171387 278.708893,347.317810 278.670349,335.199860 
	C278.647064,327.884888 276.630737,324.418152 271.640808,322.851074 
	C265.451843,320.907471 260.815948,322.598114 256.529907,328.412659 
	C255.532913,329.765228 254.649353,331.415680 252.669739,331.051178 
	C250.495071,330.650818 250.223053,328.654449 249.692657,326.886536 
	C247.875763,320.830475 249.851151,315.042877 250.827866,309.179169 
	C251.115616,307.451721 252.366776,305.741150 251.043198,303.999756 
	C249.749130,303.239746 248.735641,304.047882 247.687057,304.454407 
	C246.027222,305.097870 244.357559,306.532135 242.601044,305.048737 
	C240.607819,303.365417 240.458801,300.985687 240.990158,298.603607 
	C242.511841,291.782043 245.788132,285.884888 250.468384,280.714813 
	C252.111435,278.899811 254.323883,277.548828 255.274811,275.198700 
	C255.070908,274.794006 254.990463,274.436798 254.769714,274.227783 
	C253.150055,272.694153 249.437149,274.157288 249.231689,270.949585 
	C249.035995,267.894592 252.060303,266.735626 254.041916,265.048889 
	C262.942352,257.472809 273.656006,254.846466 284.920471,253.698776 
	C286.180786,253.570343 287.617706,254.116592 288.672363,252.830704 
	C288.832336,250.614578 284.527740,250.191208 286.283936,247.555359 
	C287.906616,245.119888 290.734100,245.656250 293.192657,245.749512 
	C312.377136,246.477386 328.337769,253.863907 340.453308,269.034546 
	C344.917664,265.569733 347.278351,268.890900 349.391907,271.751434 
	C355.198242,279.609711 358.961090,288.426361 361.370575,297.904205 
	C363.587372,306.624054 363.638245,315.569916 364.286407,324.648926 
	C370.564148,320.950256 371.247070,321.442261 372.417603,328.446564 
	C374.367889,340.117035 371.455261,351.233673 368.996643,362.422699 
	C368.545532,364.475464 367.405792,366.396576 367.802795,369.160706 
	C375.032898,367.905853 381.572052,364.996582 387.984772,362.107239 
	C398.237335,357.487854 396.452637,360.891998 396.662048,349.382416 
	C396.703979,347.077148 396.668091,344.770477 396.668091,342.469971 
	C390.204224,342.395691 389.989258,341.862823 389.605591,335.184906 
	C389.094208,326.283386 392.133545,318.169922 394.659119,309.968262 
	C386.831665,306.029083 386.635071,305.766907 390.030640,297.423981 
	C393.105225,289.869659 396.417755,282.407135 400.529968,275.337036 
	C401.977722,272.847870 402.482941,270.780640 401.289062,267.550171 
	C398.703857,260.554932 401.211151,253.666199 404.709229,247.518127 
	C406.546967,244.288162 406.351746,241.669983 404.983490,238.667709 
	C398.036804,223.424713 393.444214,207.462112 391.093170,190.915314 
	C390.090759,183.860275 389.284760,176.713821 389.772888,169.522308 
	C390.484772,159.033539 395.330536,155.254517 405.551178,157.012924 
	C416.982025,158.979568 427.691498,163.032028 438.082794,167.999191 
	C447.406311,172.455948 456.421661,177.505264 465.125519,183.071686 
	C467.345856,184.491714 469.176636,184.612442 471.612305,183.709061 
	C489.009003,177.256683 506.942505,173.086838 525.477844,171.808899 
	C528.349304,171.610916 530.020935,170.375488 531.497314,168.142288 
	C541.182129,153.493057 552.628357,140.283554 564.922058,127.800331 
	C568.918762,123.741982 573.568787,120.467918 578.965088,118.437782 
	C584.280457,116.438087 587.645752,117.461578 591.386292,121.722153 
	C596.027283,127.008369 598.417908,133.347107 600.298157,139.948990 
	C605.846802,159.431778 607.799377,179.403824 608.254333,199.563370 
	C608.320862,202.511856 608.614746,205.231842 610.993591,207.262634 
	C615.169678,210.827774 617.697327,215.590820 619.878723,220.411667 
	C623.984741,229.486008 630.415283,236.528030 638.073792,242.579254 
	C640.319031,244.353241 642.371887,246.275833 644.162842,248.455597 
	C646.148438,250.872208 647.471497,253.503036 645.431213,256.647827 
	C644.442139,258.172455 644.613098,259.928101 645.279663,261.474121 
	C649.569092,271.422546 651.637085,281.933258 653.533691,292.523102 
	C654.327026,296.953064 654.267395,301.296173 652.539001,305.283630 
	C650.801880,309.291382 651.000671,313.016083 652.431152,316.832886 
	C655.347961,324.615662 654.783508,332.899902 656.097351,340.907898 
	C656.989624,346.346069 658.593933,346.926971 662.768555,343.336365 
	C672.974365,334.558197 681.590576,324.428925 687.536987,312.292786 
	C692.176147,302.824615 697.684021,294.288177 707.758972,289.225464 
	C707.995728,289.002014 707.972839,289.014587 707.972839,289.014587 
M417.046051,200.235992 
	C416.102600,200.098434 414.820099,200.344833 414.615051,199.063324 
	C414.380035,197.594986 415.690735,197.233658 416.755096,196.749908 
	C424.897461,193.049194 432.713074,195.241898 440.518524,197.997040 
	C442.580780,198.724991 444.568054,200.308258 447.075012,199.069794 
	C446.947021,198.365692 446.999939,197.798767 446.754578,197.430664 
	C436.647003,182.268982 423.800293,170.671844 405.567139,166.309219 
	C399.219513,164.790390 398.339966,165.622177 398.298981,172.270706 
	C398.170837,193.059479 403.079712,212.768524 411.153748,231.787979 
	C411.531189,232.677063 411.814362,233.728439 413.329651,233.869354 
	C417.438019,231.472107 421.154633,227.974960 426.006073,226.437943 
	C427.453735,225.979294 429.006348,225.180176 430.035645,226.823456 
	C430.949860,228.283020 429.563904,229.256653 428.693024,230.217636 
	C425.229095,234.039780 421.568604,237.700653 418.325470,241.700623 
	C415.710541,244.925751 413.178558,248.358673 412.486115,252.997894 
	C415.351593,252.548401 417.930908,250.302887 419.958374,252.746613 
	C422.066498,255.287598 419.352417,257.378113 418.341919,259.466736 
	C413.265930,269.958282 407.971344,280.344543 402.940613,290.857300 
	C401.499725,293.868286 399.912628,296.939270 399.480316,300.471588 
	C402.243073,300.531494 404.677155,298.552429 407.332886,301.074554 
	C405.111450,306.098480 402.517578,311.109772 400.671722,316.382874 
	C398.875122,321.515320 396.953979,326.791412 398.269135,332.552032 
	C398.949982,330.104218 399.724304,327.749023 402.869171,328.466095 
	C406.171631,329.219086 405.208191,331.985107 405.176636,334.202118 
	C405.165039,335.017334 404.810883,335.822296 404.672302,336.641968 
	C403.110931,345.876862 402.756958,355.114838 404.054474,364.439758 
	C405.568909,375.323761 409.298279,385.356262 414.814209,394.798737 
	C416.252747,397.261230 417.490753,399.841095 413.948181,402.242645 
	C409.553680,398.188080 406.475647,393.478210 404.018311,388.404175 
	C401.607758,383.426697 399.585938,378.260986 397.215820,372.766022 
	C395.872437,374.242126 394.889893,375.144714 394.114807,376.199738 
	C380.705627,394.450867 366.705475,412.286163 355.309357,431.945190 
	C338.073944,461.677277 326.370331,492.912079 328.212097,528.055969 
	C328.412659,531.882812 329.687317,533.578979 333.115143,534.845154 
	C369.329163,548.221985 405.484955,561.756531 441.694672,575.145142 
	C444.365936,576.132935 447.055725,577.712524 450.117126,577.148376 
	C450.954742,571.959900 435.666565,537.968750 428.214661,528.090759 
	C424.578003,531.701721 422.472168,531.469543 420.278320,526.553284 
	C417.024017,519.260437 414.098206,511.770111 412.638153,503.898499 
	C410.950195,494.798248 405.619629,488.719299 397.976196,484.164337 
	C393.200684,481.318420 388.023804,479.613556 382.699646,478.173035 
	C380.829987,477.667175 378.206512,477.736542 377.881866,473.972595 
	C392.025635,470.837799 403.456360,475.742737 413.520752,485.108063 
	C415.039032,483.179810 413.675781,480.395813 417.174255,478.630493 
	C420.144592,489.680511 418.836151,501.531952 424.891724,511.748352 
	C428.281281,509.030701 430.022064,511.074982 431.431366,514.299683 
	C436.431488,525.740479 441.228638,537.287292 447.762299,547.979492 
	C450.047852,551.719727 451.948914,555.754333 455.028900,558.932678 
	C463.256989,551.490234 472.328613,547.372986 483.305511,547.601624 
	C494.316071,547.830933 503.133423,552.801819 511.662781,560.944824 
	C508.681427,541.554443 507.392334,523.518616 509.724518,505.407837 
	C510.290283,501.014252 510.630829,496.312775 515.452271,493.259430 
	C516.226624,509.792084 515.324707,526.273315 517.916809,542.594666 
	C520.530640,559.053162 522.525513,575.610046 524.814575,592.291199 
	C526.062622,592.035095 526.734863,591.995789 527.329895,591.760925 
	C561.381287,578.322998 595.422546,564.859497 629.479919,551.436707 
	C631.773865,550.532532 632.672852,549.002502 633.082153,546.601013 
	C634.017029,541.116089 633.464417,535.626404 633.583374,530.142334 
	C633.706238,524.477478 634.312805,524.014648 639.824524,526.202454 
	C639.095276,515.832825 638.379639,505.656921 637.618896,494.839294 
	C627.208984,502.145325 617.507996,509.099152 604.278748,510.254639 
	C605.549194,506.199097 608.237793,505.292542 610.313904,503.826080 
	C612.347534,502.389648 614.576843,501.233917 616.655457,499.857086 
	C628.294617,492.147156 638.313721,482.744690 646.572266,471.448669 
	C648.246155,469.159149 650.015991,466.037567 653.653137,469.558594 
	C655.283264,471.136658 656.773804,469.442719 657.810913,468.195679 
	C659.082153,466.667236 660.158936,464.964783 661.216797,463.273132 
	C669.246643,450.432556 675.694397,436.801025 682.047913,422.604401 
	C680.439087,422.483673 679.468750,422.302826 678.511353,422.355591 
	C668.438843,422.910675 661.319580,418.070526 656.127625,409.942719 
	C649.499756,399.567078 648.483276,388.077118 650.293884,376.278137 
	C651.135620,370.792419 652.906067,365.449249 654.429810,359.343079 
	C649.250610,361.841095 644.904846,363.816864 643.573975,369.504364 
	C642.437866,374.359589 640.505859,379.020447 638.074219,383.402802 
	C636.712219,385.857605 635.657959,388.971680 633.001892,390.041656 
	C628.713867,391.769073 627.694397,395.091003 627.112000,399.012909 
	C625.522156,409.718231 621.231750,419.418457 615.946106,428.744446 
	C613.436035,433.173248 609.798950,436.589813 606.039246,439.896362 
	C605.125854,440.699677 604.022827,441.234863 602.880432,440.338837 
	C601.720520,439.429169 602.010803,438.184631 602.621582,437.172852 
	C603.649414,435.470306 604.876587,433.888550 606.010010,432.249115 
	C616.251221,417.434753 620.830566,400.824799 621.756165,383.015961 
	C622.067078,377.034912 622.688232,371.070007 623.219604,364.449615 
	C627.519226,367.217529 627.965088,370.617798 628.413086,374.111237 
	C628.825317,377.326019 629.799927,380.459076 629.158936,384.779205 
	C639.182190,365.904114 642.322266,347.151184 637.797668,327.784821 
	C641.160095,325.910431 642.896667,329.840973 645.571045,328.458984 
	C645.920837,326.282227 645.525513,324.198792 645.207825,322.061310 
	C643.860107,312.993683 639.423523,305.119110 635.756714,296.940521 
	C634.444580,294.013947 633.055115,291.021637 636.779602,289.048157 
	C636.325012,287.183014 634.746643,286.247864 635.026184,284.549988 
	C637.060181,281.579834 640.035156,284.811432 642.840576,283.283783 
	C640.582397,273.279114 634.830078,265.158600 628.566528,257.445404 
	C623.784607,251.556671 623.507935,251.710419 628.486755,245.854355 
	C617.146545,235.823914 609.683228,222.156845 597.012817,213.462418 
	C598.484192,211.146362 600.865479,212.239777 601.883240,210.133942 
	C596.372314,205.326324 589.666931,202.451462 583.140991,199.266403 
	C581.354797,198.394623 578.188843,198.269241 579.254700,195.213516 
	C580.143005,192.666565 582.849060,193.175369 584.931091,193.695419 
	C587.503479,194.337967 589.957397,195.443054 592.516541,196.153748 
	C594.670837,196.752014 596.569458,198.556061 599.449646,197.647583 
	C599.531616,196.054947 599.706177,194.422592 599.685303,192.792740 
	C599.498962,178.266098 597.147827,164.016571 594.046448,149.874405 
	C592.726868,143.856903 591.156189,137.881256 588.604248,132.258682 
	C585.801514,126.083656 583.242737,125.548775 577.896729,129.522720 
	C575.189026,131.535477 573.024597,134.031128 570.916077,136.628387 
	C562.014099,147.593857 556.553528,160.595901 549.544556,172.679489 
	C549.024353,173.576279 548.237549,174.686340 549.113220,176.219452 
	C551.679443,176.118774 553.462646,174.405853 555.375244,172.878189 
	C561.011475,168.376373 567.101807,164.658920 574.017822,162.440155 
	C575.881409,161.842270 577.805664,161.050171 579.923462,163.234772 
	C576.789673,168.943893 569.553955,169.472763 565.671448,174.372833 
	C571.197083,175.696442 577.370483,172.956070 582.432190,177.260818 
	C571.924011,180.271744 561.959167,184.544785 551.273621,186.029968 
	C548.540894,186.409790 545.707275,184.872284 544.784485,181.583694 
	C544.306091,179.878860 543.625427,178.334671 541.485168,178.515640 
	C532.872070,179.243896 524.229004,179.752243 515.659729,180.837051 
	C497.743896,183.105057 480.493866,187.893097 463.800751,194.861404 
	C460.616302,196.190720 458.744324,197.676605 458.321167,201.014175 
	C457.760956,205.432922 455.155304,207.772110 450.800171,208.329788 
	C440.090240,209.701233 429.381561,211.082977 418.676117,212.489105 
	C417.123413,212.693054 415.023987,214.063293 414.405182,211.769394 
	C413.754974,209.359100 416.226654,209.058640 417.903595,208.479996 
	C423.430481,206.572922 428.975159,204.723297 434.856689,203.774612 
	C429.404144,200.966980 423.738647,200.171417 417.046051,200.235992 
M597.700989,733.098999 
	C604.218079,730.138855 610.716858,727.137268 617.259644,724.235107 
	C620.843384,722.645630 623.486206,720.878113 624.537292,716.371765 
	C625.898682,710.535400 632.231323,707.751526 637.523804,709.492615 
	C643.250366,711.376465 646.376770,716.637207 645.170776,722.360168 
	C644.127991,727.308655 637.911316,731.891602 632.875183,729.909607 
	C626.695068,727.477478 622.000916,729.715149 616.868774,732.075928 
	C609.305908,735.554749 601.716675,738.985046 594.047180,742.219238 
	C590.439148,743.740784 588.122314,746.150879 586.462708,749.664185 
	C580.203735,762.913940 573.676392,776.037292 567.451355,789.302734 
	C565.788757,792.845764 563.395996,795.157898 559.914978,796.820801 
	C546.992493,802.993652 534.310059,809.698486 521.207458,815.451904 
	C514.828064,818.253113 512.432922,822.011536 513.197388,828.785461 
	C513.810120,834.215271 514.029358,834.594543 519.104858,832.191223 
	C537.917114,823.283447 556.715759,814.345459 575.600037,805.592651 
	C579.003479,804.015137 581.246948,801.819824 582.799438,798.455994 
	C587.057312,789.231140 591.524231,780.102783 595.896423,770.930542 
	C596.990662,768.634888 598.319153,766.764160 600.852661,765.634033 
	C629.594299,752.813416 658.340393,739.999512 686.949402,726.887329 
	C691.882935,724.626160 694.718933,725.660706 696.814575,730.179688 
	C698.398804,733.595947 700.699036,735.450867 704.644043,736.211365 
	C708.657349,736.985168 711.910828,739.612427 712.303040,744.329346 
	C712.720276,749.348206 711.482727,753.514404 706.607300,756.065186 
	C702.484070,758.222412 698.913330,757.266235 695.458679,754.691101 
	C691.171143,751.495178 690.726807,747.016479 692.315308,742.571960 
	C693.689697,738.726379 692.380127,736.287842 690.090881,733.832764 
	C689.493164,733.958191 689.150513,733.970825 688.859436,734.099792 
	C661.308411,746.300293 633.768555,758.525879 606.201721,770.690369 
	C603.724854,771.783264 602.299072,773.576721 601.199951,775.944702 
	C597.764709,783.345398 593.868713,790.551514 590.794067,798.094971 
	C587.827698,805.372803 582.835815,809.857849 575.755249,813.068298 
	C556.499329,821.799500 537.465027,831.019287 518.328613,840.015076 
	C515.846008,841.182007 513.480408,842.306702 513.377197,845.587830 
	C513.252319,849.555969 513.383179,853.485352 514.460693,857.695862 
	C515.581848,857.269836 516.507812,856.989197 517.372253,856.578979 
	C539.486694,846.084229 561.253113,834.750061 583.842957,825.406433 
	C595.747742,820.482300 602.700989,812.895569 607.048401,801.464111 
	C609.407227,795.261841 612.674622,789.393433 615.716309,783.468933 
	C616.766724,781.422791 618.353516,779.033386 621.119934,780.288269 
	C624.222778,781.695618 622.640747,784.149841 621.642761,786.252380 
	C617.502380,794.975403 612.740479,803.466248 609.385132,812.480957 
	C606.214294,820.999451 599.915527,825.079712 592.330078,828.611023 
	C568.178711,839.854309 544.128967,851.316833 520.085999,862.791077 
	C513.293945,866.032471 511.513336,871.593750 514.570801,879.441406 
	C516.712341,878.577942 518.878235,877.771240 520.990845,876.843079 
	C556.055542,861.437744 591.066528,845.909790 625.677612,829.505127 
	C667.668274,809.602722 709.692444,789.769653 751.370789,769.212769 
	C755.860107,766.998474 757.714172,764.170715 757.752747,759.159302 
	C757.923462,737.010254 757.247803,714.869263 757.365540,692.716064 
	C757.453979,676.077454 757.318115,659.404602 757.003357,642.750061 
	C756.920105,638.345398 756.990723,633.937866 756.990723,628.894043 
	C752.581360,630.867493 749.097656,632.367676 745.662964,633.972778 
	C696.944702,656.740234 648.209534,679.471924 599.558350,702.381775 
	C594.982727,704.536377 591.947937,704.426331 588.299438,700.492493 
	C567.458191,678.021179 546.360107,655.787964 525.340881,633.481750 
	C521.551697,629.460571 517.723694,625.476074 513.705078,621.255615 
	C513.705078,685.012329 513.705078,748.046265 513.705078,811.221924 
	C514.725342,811.110413 515.267273,811.188049 515.670776,810.987305 
	C529.533203,804.091980 543.377930,797.160950 557.238831,790.262573 
	C559.285889,789.243774 560.615906,787.657288 561.575378,785.626221 
	C566.555115,775.085144 572.121948,764.779663 576.412415,753.966858 
	C580.420898,743.864746 586.388184,736.510437 597.700989,733.098999 
M395.425079,827.984131 
	C430.794983,844.921143 466.164886,861.858215 501.329193,878.696777 
	C502.888031,877.202148 502.706848,875.987244 502.707855,874.855591 
	C502.721313,859.355652 502.622772,843.854675 502.785461,828.356445 
	C502.822998,824.780823 500.856842,823.401794 498.149994,822.120483 
	C482.040375,814.494812 466.057678,806.590576 449.816498,799.258057 
	C442.205017,795.821594 436.249878,791.435974 433.081116,783.336365 
	C431.034058,778.103760 428.039673,773.185059 425.038483,768.395996 
	C420.554077,761.240051 418.289001,752.599731 409.637177,748.227112 
	C405.341583,746.056091 405.219116,740.191406 407.834442,735.705444 
	C410.339111,731.409241 415.283020,729.303894 419.763306,730.625610 
	C426.133759,732.505005 429.040558,737.836121 426.787170,745.342346 
	C425.164856,750.746460 425.771057,755.245605 428.555237,760.046936 
	C433.147858,767.966980 437.361176,776.113220 441.536072,784.265625 
	C442.996338,787.117188 445.070465,788.903564 447.896881,790.246460 
	C464.597565,798.181396 481.247650,806.222900 497.931793,814.192749 
	C499.207550,814.802124 500.457123,815.980713 502.247864,814.916138 
	C503.191193,811.593018 502.342163,808.065186 502.758942,804.637146 
	C503.236206,800.711914 501.626892,798.424255 498.072784,796.904602 
	C492.717773,794.615234 487.694885,791.329285 482.166992,789.705688 
	C466.211914,785.019592 455.666687,775.165344 449.324219,759.764771 
	C446.964569,754.035095 444.281189,748.609436 443.954834,742.385071 
	C443.799438,739.421631 442.934113,737.107300 440.931396,734.791321 
	C436.836914,730.056335 437.460663,724.178772 441.996429,720.097595 
	C446.106445,716.399536 452.682648,716.364319 456.627777,720.019104 
	C460.235077,723.361023 460.598511,731.307190 456.292389,735.034241 
	C450.102020,740.392212 451.533264,746.190002 454.169678,752.076294 
	C457.091797,758.600342 460.651917,764.839050 463.943878,771.196960 
	C464.718170,772.692383 465.612946,774.163025 467.155334,774.934143 
	C478.314636,780.513000 489.480743,786.082703 501.234772,790.344666 
	C501.450073,790.422791 501.812927,790.093872 502.393066,789.819580 
	C502.393066,733.596802 502.393066,677.245667 502.393066,620.139709 
	C494.638580,628.963501 487.396271,637.208618 480.149353,645.449707 
	C464.642609,663.083801 449.063446,680.655090 433.680084,698.396118 
	C430.308167,702.284851 427.230316,702.959167 422.446625,700.751282 
	C381.022217,681.632507 339.495880,662.734314 297.992523,643.786560 
	C287.298309,638.904297 276.577942,634.079163 265.256500,628.950012 
	C265.256500,636.563049 265.441162,643.535583 265.184723,650.491821 
	C265.039307,654.437073 266.550140,656.483948 270.167480,657.981628 
	C284.319916,663.841187 298.375061,669.937439 312.428223,676.033691 
	C315.292023,677.276062 318.226715,678.428101 319.926819,681.511719 
	C322.256989,685.738159 325.052032,689.707703 327.398041,693.926270 
	C329.665009,698.002747 331.926880,701.744019 337.555756,700.827881 
	C338.277130,700.710510 339.149109,701.233093 339.892548,701.583679 
	C344.462891,703.738831 346.519196,708.568359 345.141144,713.822021 
	C343.977448,718.258606 339.106384,721.768738 334.584015,721.429688 
	C329.612793,721.056824 325.000458,716.618835 324.864685,711.654480 
	C324.755432,707.660400 325.147156,703.732178 322.664642,700.127441 
	C320.022766,696.291260 317.645050,692.261658 315.335754,688.211731 
	C313.596527,685.161438 311.152771,683.280884 307.914154,681.924805 
	C295.473145,676.715454 283.126709,671.280457 270.732239,665.959412 
	C269.273041,665.333008 267.859772,664.092529 266.110443,665.173828 
	C264.132538,672.663818 264.842590,675.914551 268.966278,677.703125 
	C278.896179,682.010193 288.799194,686.386841 298.824097,690.462341 
	C301.808044,691.675415 304.002533,693.377380 305.443787,696.145142 
	C310.909210,706.641113 317.063416,716.734497 323.202179,726.841980 
	C324.922394,729.674316 327.053131,731.643616 330.117096,732.975464 
	C342.640503,738.419434 355.093079,744.026550 367.559937,749.600037 
	C372.531158,751.822510 377.002869,754.191162 383.033722,751.227661 
	C388.164490,748.706360 393.897644,752.669067 395.365143,758.137207 
	C396.976074,764.139832 393.592163,770.108826 387.620605,771.798096 
	C382.933258,773.124146 377.247559,769.847778 375.756927,764.439453 
	C374.765747,760.843323 372.215942,759.443665 369.267395,758.146057 
	C354.331268,751.573059 339.419434,744.944275 324.455139,738.436157 
	C321.719757,737.246399 319.701813,735.520874 318.231079,732.957764 
	C313.672211,725.012756 308.640045,717.309143 304.558197,709.129333 
	C300.646149,701.289917 295.529327,695.542236 286.899963,692.804626 
	C281.224396,691.004150 275.939514,687.983032 270.450928,685.574036 
	C269.146027,685.001282 267.871765,683.887390 266.222046,684.780884 
	C264.839111,686.333496 265.337738,688.251648 265.335449,690.020569 
	C265.305542,713.187195 265.434601,736.354858 265.228241,759.519592 
	C265.187836,764.052246 266.836548,766.394043 270.820374,768.292786 
	C312.170349,788.000427 353.446899,807.862244 395.425079,827.984131 
M518.698853,613.775146 
	C530.504944,626.217590 542.299377,638.671082 554.120544,651.099243 
	C565.364014,662.920044 576.590149,674.758057 587.913757,686.501770 
	C593.610840,692.410278 598.091003,692.944275 605.558838,689.729004 
	C619.939148,683.537292 633.938599,676.545227 648.115112,669.924927 
	C701.210571,645.130249 754.385315,620.505310 807.527222,595.810059 
	C816.832397,591.485901 826.122803,587.130066 835.156555,582.911926 
	C835.275146,581.124390 834.374268,580.575684 833.659546,579.896545 
	C823.400757,570.147827 813.088074,560.454834 802.904541,550.628113 
	C789.966736,538.143555 777.098572,525.586121 764.284058,512.975037 
	C761.432495,510.168701 758.808777,508.902710 754.628662,510.621735 
	C727.079285,521.951111 699.395020,532.951965 671.826355,544.235046 
	C640.256897,557.155457 608.763367,570.256470 576.921204,582.505371 
	C557.825500,589.851074 538.855469,597.526978 519.886414,605.196350 
	C514.113220,607.530579 514.162354,607.936462 518.698853,613.775146 
M482.165558,600.444214 
	C460.493164,592.378601 438.816437,584.324585 417.149261,576.245117 
	C368.198364,557.991638 319.211578,539.833069 270.350037,521.343445 
	C263.399658,518.713318 257.897278,518.074341 252.918930,524.618896 
	C250.840973,527.350586 247.748688,529.294312 245.212860,531.696777 
	C232.038315,544.178467 218.841995,556.638000 205.765915,569.222351 
	C200.550018,574.242065 195.623184,579.562134 190.285477,585.031738 
	C196.054413,588.670532 201.930740,590.939209 207.643661,593.523865 
	C252.075226,613.625732 296.518036,633.702820 340.944336,653.816345 
	C365.795319,665.067444 390.643951,676.324219 415.447418,687.679382 
	C424.922943,692.017273 428.384857,691.353821 435.132080,683.374023 
	C439.754639,677.906982 444.431702,672.485596 449.119537,667.074280 
	C464.492432,649.329102 479.914673,631.626526 495.240234,613.840515 
	C498.954681,609.529724 498.061157,606.479187 492.713165,604.368896 
	C489.463867,603.086853 486.152283,601.962585 482.165558,600.444214 
M265.673767,386.942383 
	C264.973480,385.850891 264.273193,384.759399 263.291779,383.229706 
	C262.804138,384.666321 262.447510,385.577667 262.183502,386.515076 
	C256.858765,405.423462 257.413300,424.270721 262.858246,443.045410 
	C264.968903,450.323090 264.924622,450.465851 257.702423,451.506836 
	C262.609711,475.832336 295.220490,507.839691 319.300293,511.835205 
	C321.360596,502.958435 321.691071,493.740540 324.357788,484.978516 
	C324.861694,483.322845 324.291992,482.050995 323.089691,480.961151 
	C312.612579,471.464233 311.602631,458.618744 312.172363,446.016998 
	C313.060211,426.379150 322.562256,410.526672 337.149628,397.688782 
	C348.999207,387.260315 356.843597,374.327271 361.367096,359.362732 
	C363.203247,353.288361 364.349152,346.996307 364.602173,339.956940 
	C362.763977,341.000244 361.637482,341.653839 360.497559,342.283112 
	C358.985077,343.118134 357.328552,343.757416 355.790375,342.665497 
	C354.184479,341.525482 354.633942,339.656769 354.839752,338.039581 
	C356.163147,327.640594 357.266724,317.219116 355.590088,306.776154 
	C354.489624,299.921875 353.286163,293.041473 349.753387,286.601898 
	C345.640106,290.115814 344.279022,286.963562 342.649170,284.089417 
	C333.507660,267.969147 319.998749,257.958160 300.929932,254.501541 
	C301.599548,255.575897 301.954346,256.061462 302.222565,256.590912 
	C303.098999,258.321289 305.012177,260.012299 303.780731,262.040985 
	C302.372620,264.360779 300.103912,262.743073 298.336884,262.323669 
	C293.736176,261.231720 289.061584,260.875336 284.449249,261.430084 
	C278.868988,262.101288 273.094208,262.625031 268.265656,266.412506 
	C270.069672,268.343536 272.763702,268.224762 274.151581,271.462128 
	C264.566956,276.815308 254.920685,282.695801 251.905579,294.980835 
	C256.048096,294.190491 259.875214,292.302155 264.285522,295.280762 
	C260.132355,302.179779 257.413635,309.497925 256.931976,317.580750 
	C271.836243,309.038361 286.114471,317.291351 286.380981,334.357025 
	C286.473175,340.260254 285.283936,345.907898 283.781097,351.541229 
	C280.304016,364.574890 274.233978,376.739075 270.933411,389.834991 
	C270.745331,390.581146 270.150330,391.326874 269.055389,391.224945 
	C267.315826,390.631470 266.878357,388.881866 265.673767,386.942383 
M797.282349,467.771271 
	C809.234131,457.303528 821.185974,446.835815 833.662720,435.908356 
	C830.879883,434.857086 829.050110,434.113678 827.185974,433.469727 
	C809.589905,427.391449 791.648254,422.147369 774.490723,415.015930 
	C759.675049,408.857910 744.709717,407.594543 729.134705,408.404968 
	C725.614624,408.588135 724.048401,409.577271 724.269714,413.396729 
	C724.769226,422.019226 725.017639,430.660492 725.153503,439.297485 
	C725.199341,442.211243 726.047363,443.991516 728.590393,445.794586 
	C735.855713,450.945831 736.372498,461.462555 730.002686,466.487427 
	C724.488892,470.837036 716.760132,469.966705 712.659607,464.534424 
	C708.340210,458.812195 709.306213,450.551483 715.236877,446.388092 
	C717.851379,444.552643 718.828613,442.628479 719.146240,439.527100 
	C720.119629,430.020630 718.307190,420.605164 718.643372,411.127197 
	C718.866760,404.826996 720.601440,402.830383 727.013611,402.757446 
	C730.761169,402.714813 734.509705,402.749725 738.257751,402.749725 
	C729.518066,398.518280 720.679077,395.288422 711.851624,392.027039 
	C705.658630,389.738953 705.652100,389.713928 703.081177,395.713623 
	C694.488281,415.766327 685.381958,435.576752 675.286011,454.924774 
	C673.230408,458.864075 671.331177,462.884949 669.492371,466.600586 
	C670.526794,468.133179 671.650696,468.447357 672.755432,468.835052 
	C699.906250,478.362518 727.091248,487.795074 754.166504,497.532715 
	C759.138672,499.320984 762.601501,498.262665 766.316223,494.913605 
	C776.334595,485.881226 786.582642,477.103485 797.282349,467.771271 
M272.304230,492.432709 
	C259.094269,477.935791 250.215363,461.336334 247.236862,441.739105 
	C246.277496,435.426880 246.659592,434.212402 252.532242,432.261963 
	C252.701096,430.068634 251.952377,428.083313 250.871979,425.470062 
	C230.283524,433.376862 209.793274,441.245941 189.115662,449.186981 
	C191.516846,454.147430 195.310684,455.913208 198.283905,458.476746 
	C217.072327,474.676575 235.944611,490.779175 254.802094,506.898834 
	C256.304504,508.183136 257.873993,509.939178 260.020386,509.238434 
	C264.526550,507.767303 269.192749,506.553741 273.290710,503.684937 
	C271.804565,499.965393 271.992401,496.428711 272.304230,492.432709 
M345.786163,431.397125 
	C357.773499,410.518646 372.075714,391.218964 387.222290,371.337708 
	C377.977051,374.566345 369.833801,377.815155 362.184418,382.170868 
	C360.649872,383.044678 359.284698,384.448364 358.229431,385.891449 
	C353.495514,392.365387 348.035980,398.151611 342.216248,403.646362 
	C337.862061,407.757385 333.653381,412.053131 330.239227,416.998413 
	C319.698425,432.266357 316.272156,448.703156 322.485291,466.598602 
	C323.325836,469.019623 324.013916,471.661530 327.224243,473.157593 
	C331.875275,458.600647 338.262238,445.142487 345.786163,431.397125 
M719.403564,323.205048 
	C716.974854,321.845245 714.885925,323.114136 712.824524,324.143066 
	C709.825134,325.640137 706.640259,327.269501 703.389709,326.883545 
	C699.844604,326.462646 698.361328,328.012421 697.568054,330.800262 
	C696.725281,333.761963 698.431396,335.731354 701.005981,336.600098 
	C706.002197,338.285950 709.389954,341.893829 712.634888,345.705200 
	C713.965881,347.268555 715.416016,348.620575 717.334595,349.291748 
	C721.081665,350.602539 725.836426,347.374329 725.216003,343.551758 
	C724.676025,340.225586 725.073181,336.888702 724.455139,333.638458 
	C723.758179,329.973083 723.994446,325.814331 719.403564,323.205048 
M718.418884,462.164673 
	C723.130737,464.409668 726.963074,463.446533 728.378174,459.661743 
	C729.747498,455.999329 726.955322,450.612640 723.181152,449.635620 
	C719.997009,448.811279 716.607300,451.459412 715.774292,455.331573 
	C715.223083,457.894073 716.487671,459.783722 718.418884,462.164673 
M792.691895,356.194611 
	C792.140503,350.363922 787.772766,347.511749 783.285400,350.111328 
	C780.937805,351.471283 779.524414,353.595367 780.063599,356.321167 
	C780.614197,359.104614 782.363159,361.157654 785.376221,361.562775 
	C789.013611,362.051819 791.487427,360.523743 792.691895,356.194611 
M630.714050,721.686401 
	C631.896729,724.031555 633.579773,725.319946 636.256531,724.063354 
	C638.769348,722.883545 640.111694,720.811279 639.401367,718.090820 
	C638.805969,715.810608 636.753967,714.416382 634.521851,714.797241 
	C631.306580,715.345825 629.936523,717.688232 630.714050,721.686401 
M417.377197,736.176208 
	C414.629150,736.150391 412.976318,737.533264 412.486084,740.187195 
	C412.161224,741.945679 412.651123,743.523987 414.263763,744.515564 
	C416.731079,746.032776 419.239380,746.084473 420.771729,743.426941 
	C422.598938,740.257935 421.596893,737.689941 417.377197,736.176208 
M389.526947,763.010681 
	C389.484406,757.998291 386.737579,755.437988 383.240143,757.207886 
	C381.528656,758.073853 380.303925,759.421326 380.440460,761.499390 
	C380.556305,763.263000 381.390167,764.782471 383.062744,765.396301 
	C385.417755,766.260498 387.633148,765.951660 389.526947,763.010681 
M698.869080,749.720032 
	C701.086365,751.979187 703.558472,752.282532 705.719604,749.938904 
	C707.291016,748.234863 707.175354,745.878174 705.892761,744.001770 
	C704.647156,742.179688 702.535583,741.697144 700.636719,742.768066 
	C698.183228,744.151917 696.466675,746.120972 698.869080,749.720032 
M745.001953,328.709961 
	C745.880554,326.475311 745.569702,324.892944 742.745178,325.700745 
	C740.013062,326.482056 737.948914,328.548767 735.962097,330.461792 
	C734.867188,331.516083 735.071167,333.320068 735.946594,334.608246 
	C737.074280,336.267639 738.560303,335.529999 739.848022,334.723267 
	C741.965881,333.396576 743.788940,331.763306 745.001953,328.709961 
M337.441040,706.996765 
	C335.172516,705.784790 333.276154,706.385376 331.675751,708.229370 
	C330.632141,709.431824 330.095062,710.761658 330.903381,712.336121 
	C332.078674,714.625366 333.917877,716.420105 336.427704,715.128540 
	C339.720245,713.434082 340.817963,710.667603 337.441040,706.996765 
M447.818237,732.408569 
	C451.541809,732.197510 453.916901,730.689941 452.788422,726.541199 
	C452.283844,724.686340 450.674561,723.544006 448.669586,723.504822 
	C446.675995,723.465759 445.103699,724.437683 444.503784,726.387390 
	C443.695831,729.013550 444.913147,730.850647 447.818237,732.408569 
M706.881165,306.342468 
	C706.064758,309.212341 705.914307,312.089111 710.008728,311.454468 
	C712.423767,311.080139 714.156189,308.865784 714.635742,306.212585 
	C714.861633,304.962585 714.330994,303.836487 713.043274,303.507080 
	C710.652893,302.895569 708.441467,303.062378 706.881165,306.342468 
M728.630554,314.144836 
	C727.927979,316.388214 728.598999,318.199341 731.063904,317.360779 
	C734.437439,316.213043 736.124573,313.593597 735.032410,309.719116 
	C731.783386,309.429565 730.446655,311.592834 728.630554,314.144836 
z"/>
<path fill="#000000" opacity="1.000000" stroke="none" 
	d="
M824.492371,216.601837 
	C828.805969,222.087311 830.368042,228.080902 830.313049,234.601837 
	C830.265320,240.265350 830.364868,245.930847 830.262878,251.593002 
	C830.012390,265.491943 820.281738,276.343658 806.535095,278.159790 
	C794.292603,279.777191 781.890442,271.254242 778.302612,258.483459 
	C776.845337,253.296265 777.850830,247.876831 777.638733,242.567123 
	C777.492554,238.909058 777.654297,235.239182 777.658875,231.574554 
	C777.674072,219.338120 784.791077,210.334213 796.879944,207.814789 
	C799.859741,207.193771 800.607361,205.819229 800.736023,203.115158 
	C801.251099,192.284454 801.308228,192.287079 790.715881,192.287109 
	C756.233032,192.287201 721.750122,192.287430 687.267273,192.287216 
	C686.267761,192.287201 685.268188,192.287827 684.268738,192.279709 
	C681.525146,192.257431 678.259521,192.215469 678.302185,188.649506 
	C678.343201,185.224472 681.621643,185.567078 684.096191,185.568863 
	C720.910278,185.595505 757.725708,185.832596 794.537659,185.570236 
	C805.671143,185.490891 816.808044,186.265900 827.955811,185.461746 
	C830.457520,185.281281 835.009888,184.160324 834.918396,188.723618 
	C834.836304,192.823151 830.771240,192.203903 827.860596,192.249542 
	C822.364624,192.335739 816.859436,192.457153 811.371521,192.234039 
	C807.369080,192.071320 805.855652,193.746887 806.310364,197.560455 
	C806.329956,197.724762 806.315369,197.893341 806.313904,198.059906 
	C806.240967,206.243118 806.197388,206.363480 813.688782,209.068619 
	C817.900940,210.589615 821.368896,212.977051 824.492371,216.601837 
M806.035217,271.672302 
	C818.567261,269.094818 824.185730,261.609772 823.759216,248.561661 
	C823.651245,245.259003 822.434998,244.221909 819.281189,244.257721 
	C808.953735,244.374939 798.622742,244.394485 788.295898,244.252899 
	C784.784058,244.204742 783.599426,245.851028 783.398926,249.026199 
	C782.615356,261.437805 791.636047,273.112823 806.035217,271.672302 
M804.921448,234.609604 
	C800.281311,234.319702 796.776001,231.173401 798.657776,228.879074 
	C801.391541,225.545898 800.428162,221.991364 800.722107,218.460510 
	C801.079651,214.166443 798.821106,213.740387 795.436035,214.793350 
	C787.381409,217.298843 781.932251,226.743835 783.612549,234.974716 
	C784.043762,237.086929 785.015625,237.720825 786.955505,237.714905 
	C798.087585,237.680969 809.219910,237.692764 820.352112,237.677200 
	C821.938843,237.674973 823.177368,237.335312 823.693909,235.443481 
	C825.888062,227.408691 818.125122,215.377457 810.027161,214.458847 
	C808.532043,214.289246 806.610413,214.129410 806.511108,216.167221 
	C806.328003,219.925995 804.997925,224.171112 807.197144,227.346069 
	C809.646851,230.882614 807.957214,232.384979 804.921448,234.609604 
z"/>
<path fill="#000000" opacity="1.000000" stroke="none" 
	d="
M825.996948,291.710571 
	C828.161743,291.713287 829.935425,291.337860 831.475159,291.778992 
	C840.846985,294.463867 845.271301,287.086426 850.908447,282.307770 
	C852.561157,280.906708 851.900208,278.525513 851.906372,276.579803 
	C851.968872,256.927277 851.943176,237.274475 852.006104,217.621964 
	C852.014587,214.971283 852.293640,212.312134 852.603027,209.675156 
	C852.794800,208.040649 853.723145,206.817810 855.557800,206.925522 
	C857.367371,207.031754 858.122375,208.299805 858.229980,209.966721 
	C858.315735,211.294525 858.302856,212.629837 858.303162,213.961823 
	C858.308228,234.781250 858.360718,255.600937 858.257385,276.419861 
	C858.240479,279.821014 858.856812,282.262634 861.983459,284.381317 
	C867.158203,287.887787 868.807800,293.171814 866.997864,298.897278 
	C865.605103,303.303009 862.584961,306.454712 857.869324,307.185059 
	C852.082642,308.081146 847.291870,306.088226 844.272705,300.936493 
	C843.075928,298.894379 841.611206,298.258209 839.421875,298.262848 
	C821.434082,298.300781 803.445679,298.349823 785.458557,298.232574 
	C781.731140,298.208282 780.356934,299.844635 780.359985,303.296753 
	C780.366882,311.124603 780.338135,318.952637 780.289185,326.780334 
	C780.279846,328.271729 780.258972,329.791107 779.974182,331.244843 
	C779.687988,332.705994 778.510132,333.488190 777.055603,333.509033 
	C775.294189,333.534271 774.858459,332.138062 774.819275,330.776215 
	C774.709045,326.948486 774.723633,323.116730 774.716370,319.286530 
	C774.703735,312.624359 774.689697,305.962006 774.716919,299.299927 
	C774.745544,292.283325 775.307373,291.729034 782.526306,291.718170 
	C796.850098,291.696625 811.173889,291.710541 825.996948,291.710571 
M861.302917,292.406128 
	C859.643127,289.237701 857.244202,287.699219 853.567505,288.783142 
	C850.634277,289.647797 849.078857,291.913544 848.801331,294.595947 
	C848.479736,297.703552 850.511902,299.910278 853.283875,301.129730 
	C858.126831,303.260254 861.664124,299.783661 861.302917,292.406128 
z"/>
<path fill="#000000" opacity="1.000000" stroke="none" 
	d="
M666.330200,131.861481 
	C666.240540,136.561996 663.977539,139.528778 660.422119,141.476852 
	C658.042236,142.780807 657.316650,144.573013 657.325439,147.157608 
	C657.393921,167.290237 657.354980,187.423187 657.396545,207.555969 
	C657.403870,211.096878 658.033325,214.024857 661.503784,216.467682 
	C667.502502,220.690063 668.257935,229.771133 663.725769,234.573486 
	C657.968201,240.674088 649.600220,240.718384 644.439148,234.675522 
	C639.698059,229.124374 640.744324,220.799179 647.316101,216.416046 
	C650.333191,214.403732 650.957703,212.149170 650.948059,208.970169 
	C650.886292,188.505569 650.911377,168.040710 650.927429,147.575928 
	C650.929443,145.043259 650.846069,142.908157 648.204651,141.195068 
	C642.311401,137.373001 640.600464,131.787308 643.007874,126.195061 
	C645.268311,120.944511 651.001099,117.610756 656.243530,118.498276 
	C662.351929,119.532410 665.915344,124.098389 666.330200,131.861481 
M659.483948,230.042725 
	C661.472229,226.333084 660.748413,223.237335 657.055176,221.230377 
	C653.625000,219.366364 650.597473,220.340546 648.420593,223.502197 
	C646.562378,226.200989 646.869812,229.156219 649.234924,231.139908 
	C652.394958,233.790421 655.910889,233.483078 659.483948,230.042725 
M657.879456,125.608955 
	C654.905701,123.731155 652.098206,124.098991 649.914246,126.732132 
	C648.127930,128.885803 647.532410,131.550690 649.173340,134.105255 
	C650.811951,136.656097 653.443970,137.135742 656.206238,136.590652 
	C660.904724,135.663498 661.916077,130.814377 657.879456,125.608955 
z"/>
<path fill="#000000" opacity="1.000000" stroke="none" 
	d="
M740.134644,204.888214 
	C747.563049,202.023193 753.265564,203.539902 756.644043,209.000824 
	C759.997437,214.421005 758.753113,221.205780 753.130493,225.928238 
	C750.964050,227.747864 750.135498,229.667358 750.202881,232.358170 
	C750.323669,237.183777 750.320679,242.014771 750.253296,246.841888 
	C750.215210,249.570053 751.332214,250.761169 754.118591,250.717590 
	C758.778320,250.644730 763.442688,250.725449 768.102234,250.849182 
	C770.241760,250.906006 772.934021,250.836151 772.916138,253.851532 
	C772.897766,256.955017 770.320435,257.276031 767.842712,257.276672 
	C763.680359,257.277771 759.507507,257.462585 755.358582,257.227264 
	C751.356995,257.000275 750.069824,258.718689 750.215332,262.532654 
	C750.405579,267.518524 750.254639,272.520966 750.134094,277.513458 
	C750.081848,279.678223 749.910706,282.435120 747.114990,282.391357 
	C744.282776,282.346985 743.667297,279.841461 743.675049,277.257141 
	C743.710938,265.269623 743.288391,253.264160 743.828552,241.301178 
	C744.133240,234.551331 742.349670,229.354950 737.932129,224.287186 
	C731.550781,216.966766 732.410583,211.227585 740.134644,204.888214 
M749.658630,209.884415 
	C746.902893,208.590652 744.126770,208.211075 741.835144,210.617447 
	C740.219299,212.314102 739.009766,214.324692 740.060364,216.924744 
	C741.064209,219.409103 742.625244,221.191208 745.391785,221.593307 
	C748.202393,222.001801 750.211853,220.780075 751.610962,218.397797 
	C753.423218,215.311951 752.622498,212.677521 749.658630,209.884415 
z"/>
<path fill="#000000" opacity="1.000000" stroke="none" 
	d="
M679.276184,136.094727 
	C676.904419,133.046310 678.322937,131.359528 680.935486,130.595566 
	C682.964844,130.002151 685.191528,129.899109 687.330994,129.895676 
	C704.466553,129.868057 721.602234,129.908615 738.737854,129.953857 
	C740.226746,129.957794 741.739990,130.011673 743.197021,130.283142 
	C744.790283,130.580048 745.932190,131.602219 746.029541,133.321457 
	C746.139404,135.262115 744.986267,136.456207 743.233704,136.942017 
	C742.132874,137.247177 740.934265,137.295258 739.779480,137.296143 
	C721.146362,137.310379 702.513184,137.303055 683.880066,137.283859 
	C682.398254,137.282333 680.860413,137.423050 679.276184,136.094727 
z"/>
<path fill="#000000" opacity="1.000000" stroke="none" 
	d="
M708.005615,288.994507 
	C705.705200,288.389099 704.870544,286.703735 704.794312,284.517944 
	C704.718872,282.356415 704.523132,280.175171 704.717834,278.033234 
	C705.099182,273.837860 703.768860,270.974121 700.036804,268.513245 
	C694.468811,264.841858 693.233337,259.540436 695.569214,253.649963 
	C697.646057,248.412979 702.745361,245.327896 708.664734,245.672958 
	C714.004333,245.984222 717.170837,249.201035 719.044922,253.774109 
	C721.162231,258.940643 720.089844,264.231598 715.996765,267.455963 
	C710.772339,271.571472 709.813721,276.480011 710.238770,282.374786 
	C710.396118,284.557983 710.155090,286.720032 708.231750,288.718140 
	C707.972839,289.014587 707.995728,289.002014 708.005615,288.994507 
M711.696106,263.248779 
	C714.730225,258.956146 714.375732,255.025803 710.734314,252.586349 
	C707.568298,250.465393 703.444702,251.422180 701.328918,254.908127 
	C699.837036,257.366058 699.663391,260.020599 701.629883,262.266388 
	C704.285889,265.299683 707.582397,265.411896 711.696106,263.248779 
z"/>
<path fill="#000000" opacity="1.000000" stroke="none" 
	d="
M828.611145,154.244995 
	C809.984314,154.276520 791.819458,154.295166 773.654602,154.293060 
	C771.992432,154.292862 770.320740,154.244629 768.671143,154.060379 
	C767.445679,153.923508 766.451782,153.224197 766.177917,151.937943 
	C765.840515,150.352600 766.867676,149.486511 768.088928,148.802124 
	C769.599487,147.955551 771.260803,147.867691 772.939575,147.864929 
	C791.103943,147.834976 809.268250,147.788483 827.432617,147.785858 
	C829.759033,147.785522 832.515076,147.663727 832.978027,150.725067 
	C833.373413,153.339767 831.175293,153.932388 828.611145,154.244995 
z"/>
<path fill="#000000" opacity="1.000000" stroke="none" 
	d="
M725.079468,174.290283 
	C722.273682,174.187637 719.937744,174.223541 717.643799,173.931000 
	C716.275818,173.756516 715.191956,172.783279 715.077393,171.263718 
	C714.943359,169.485550 716.080688,168.494446 717.624329,168.045746 
	C718.561584,167.773300 719.591309,167.735504 720.579651,167.734406 
	C737.198730,167.715958 753.817749,167.715439 770.436829,167.730103 
	C771.426636,167.730972 772.451294,167.761627 773.397644,168.012634 
	C774.715332,168.362137 775.944214,169.047211 776.022461,170.621719 
	C776.097839,172.139908 775.084167,173.250122 773.823242,173.643051 
	C772.278931,174.124283 770.577148,174.261505 768.942627,174.266418 
	C754.484192,174.309906 740.025513,174.291046 725.079468,174.290283 
z"/>
<path fill="#000000" opacity="1.000000" stroke="none" 
	d="
M759.808228,136.919785 
	C756.122070,133.324341 756.512939,131.517258 760.885559,130.389267 
	C762.152039,130.062546 763.514282,130.003159 764.833130,129.999496 
	C775.625000,129.969604 786.417725,129.917694 797.208557,130.028030 
	C799.805481,130.054581 803.305237,130.157761 803.179810,133.697723 
	C803.063904,136.970566 799.832458,137.318771 797.058960,137.303650 
	C784.776306,137.236679 772.493835,137.149872 759.808228,136.919785 
z"/>
<path fill="#000000" opacity="1.000000" stroke="none" 
	d="
M692.029541,147.787781 
	C700.500854,147.787003 708.477783,147.768372 716.454590,147.797501 
	C718.996948,147.806793 721.999817,147.817429 721.891418,151.298767 
	C721.791992,154.492203 718.863464,154.298813 716.547241,154.302765 
	C705.578552,154.321472 694.609680,154.307297 683.641052,154.261108 
	C681.329407,154.251373 678.325989,154.434769 678.323669,151.271042 
	C678.321533,148.368530 681.196594,147.992264 683.559875,147.866791 
	C686.212219,147.725983 688.876282,147.805023 692.029541,147.787781 
z"/>
<path fill="#000000" opacity="1.000000" stroke="none" 
	d="
M692.001343,174.289062 
	C688.360779,174.253922 685.204346,174.313873 682.059509,174.150894 
	C679.834656,174.035583 678.082458,172.798737 678.121582,170.482468 
	C678.161316,168.133606 680.231445,167.765320 682.139221,167.755951 
	C688.443176,167.725021 694.747803,167.724380 701.051453,167.784454 
	C703.018433,167.803192 704.864868,168.490463 704.928528,170.768082 
	C704.998047,173.258804 703.176025,174.167145 700.950745,174.230209 
	C698.132324,174.310089 695.310730,174.274582 692.001343,174.289062 
z"/>
<path fill="#000000" opacity="1.000000" stroke="none" 
	d="
M743.996460,154.292496 
	C740.682800,154.281265 737.856567,154.302399 735.031982,154.245331 
	C733.526428,154.214920 731.890198,154.205429 731.714600,152.109299 
	C731.572754,150.415939 732.247559,149.154053 733.988586,148.753799 
	C740.384277,147.283524 746.833191,147.427582 753.268372,148.376602 
	C754.788818,148.600845 756.163208,149.547104 755.991699,151.399750 
	C755.802490,153.442673 754.250854,154.122299 752.460022,154.192993 
	C749.804443,154.297852 747.143372,154.265991 743.996460,154.292496 
z"/>
<path fill="#000000" opacity="1.000000" stroke="none" 
	d="
M444.383545,272.492310 
	C449.356293,266.012177 453.621552,259.407410 459.699768,254.325165 
	C467.462982,247.834000 475.962585,244.694611 486.027588,248.342117 
	C486.965149,248.681885 487.964722,248.863052 489.201447,247.995422 
	C489.509308,243.910706 486.479340,240.497055 486.046967,236.437225 
	C485.819000,234.296402 485.081085,232.210083 484.849976,230.069305 
	C484.507050,226.892441 484.292297,223.394897 487.222504,221.379272 
	C489.812012,219.598083 491.582001,222.964737 494.501709,223.567551 
	C494.926636,218.822983 494.161530,213.980972 495.604858,209.401840 
	C495.751892,208.935257 495.643982,208.390564 495.778625,207.917480 
	C497.203003,202.913315 498.432739,197.608704 504.434052,196.143524 
	C507.932037,195.289520 514.178894,200.747681 516.381592,206.171539 
	C517.369385,208.603806 518.175354,211.109909 519.091858,213.660339 
	C521.772522,213.027344 522.968384,210.882675 524.684753,209.422668 
	C528.162903,206.464050 530.909790,206.964340 533.236755,210.911911 
	C536.649841,216.701981 535.149536,223.279373 536.113098,229.455643 
	C537.090698,235.722595 539.118408,237.504303 544.911133,234.635574 
	C561.507202,226.416718 575.470825,235.746979 584.695557,244.391174 
	C588.741638,248.182587 582.780273,247.576874 580.938477,249.392838 
	C584.280579,267.611328 571.647766,276.296936 558.506348,284.627319 
	C556.860474,285.670593 554.992981,285.505463 553.186646,284.927979 
	C549.555603,283.767212 545.864502,282.756317 542.321289,281.369049 
	C538.550659,279.892700 536.413452,281.694702 536.578674,284.958160 
	C536.833008,289.981995 534.173218,292.957092 531.036560,296.072052 
	C526.763611,300.315460 527.215576,303.335388 531.902222,307.192841 
	C536.863098,311.276093 542.860901,311.456879 548.869629,312.555573 
	C544.822937,316.699402 539.294373,316.268036 534.981567,314.809082 
	C528.915405,312.756989 524.651123,313.497864 519.647339,317.390381 
	C514.982605,321.019196 509.082733,322.533447 502.145874,320.486725 
	C504.965515,317.928741 508.053894,317.937042 510.648285,316.896149 
	C517.587891,314.111908 520.904419,309.779694 520.662720,303.579681 
	C520.586365,301.621613 520.218933,299.783875 518.302063,298.980072 
	C512.285095,296.456940 508.999939,291.712250 507.058472,285.757629 
	C506.933624,285.374664 506.360992,285.137726 505.413055,284.344543 
	C503.268158,289.941162 498.004822,291.604187 493.552124,294.209717 
	C493.885590,296.277130 497.448303,296.989319 495.650604,299.328979 
	C494.113586,301.329376 491.996704,299.914124 490.132324,299.362030 
	C486.152344,298.183472 482.194183,296.919647 478.180634,295.868073 
	C465.505890,292.546936 455.074432,286.502533 450.557434,273.350433 
	C447.531464,273.187897 446.525208,277.143799 443.465210,276.456390 
	C442.422363,274.926208 443.711823,273.941711 444.383545,272.492310 
M456.410095,268.690735 
	C458.098785,278.468933 463.843903,284.807220 473.076752,288.026855 
	C481.837891,291.081940 489.435333,288.613464 496.049408,282.585083 
	C501.866425,277.283203 502.198181,274.155151 497.938416,267.642120 
	C497.011322,266.224701 495.963989,264.885925 494.508911,262.869019 
	C496.048645,270.805237 495.673767,277.482422 489.426208,282.221588 
	C484.283783,286.122406 475.728790,286.575836 471.089355,282.738129 
	C461.937164,275.167511 464.453705,265.950867 469.361603,256.055878 
	C463.077148,259.105469 458.298157,261.955414 456.410095,268.690735 
M568.741150,247.242691 
	C569.189209,248.494308 569.774170,249.715164 570.063354,251.002472 
	C572.077515,259.967957 568.409790,267.473572 561.268494,269.126892 
	C552.353333,271.190887 544.268311,267.011292 540.471069,258.569580 
	C539.865784,257.224060 540.277039,255.201843 538.066223,254.413147 
	C535.841675,259.484528 535.024536,264.530975 538.492493,269.109589 
	C542.475464,274.368256 548.330750,276.719666 554.705078,276.016083 
	C565.380371,274.837677 573.827026,266.065979 575.512390,255.416824 
	C576.533203,248.967133 571.531494,241.879425 565.027100,240.940948 
	C566.219055,242.912491 567.316345,244.727539 568.741150,247.242691 
M520.534363,292.788483 
	C525.505127,294.614288 526.131104,289.752045 529.177002,287.673248 
	C523.889343,285.113312 519.572998,287.208954 514.851685,287.970612 
	C516.054504,290.680481 518.145447,291.417236 520.534363,292.788483 
z"/>
<path fill="#000000" opacity="1.000000" stroke="none" 
	d="
M420.463196,393.218933 
	C418.764343,386.048035 415.809967,379.297821 419.393158,371.867493 
	C422.360291,373.400574 422.703186,376.110779 423.117340,378.309265 
	C428.055420,404.521667 445.130188,420.722351 467.575256,432.490845 
	C475.388672,436.587555 483.776886,439.372894 491.978912,442.566376 
	C494.817963,443.671783 497.286469,445.308258 499.645294,447.152191 
	C500.601227,447.899475 501.243958,448.930420 500.664856,450.205719 
	C500.171082,451.293152 499.046722,451.390656 498.095428,451.263702 
	C495.310760,450.891876 492.412689,450.749878 489.795990,449.837952 
	C470.007782,442.941681 451.348053,434.089966 436.565247,418.603912 
	C429.589844,411.296692 423.844360,403.259369 420.463196,393.218933 
z"/>
<path fill="#000000" opacity="1.000000" stroke="none" 
	d="
M598.190552,411.963135 
	C601.476257,425.628113 596.369019,437.057831 588.110229,447.009857 
	C581.756348,454.666412 575.777710,462.242981 573.196472,472.035339 
	C572.789856,473.577820 572.222534,475.461578 569.896057,474.904846 
	C567.832642,474.411011 567.699036,472.717346 567.650635,470.967743 
	C567.406311,462.134521 570.692444,454.411346 576.679871,448.392456 
	C585.702576,439.322479 592.984558,429.606995 594.830627,416.540924 
	C595.075684,414.806000 595.251160,412.389343 598.190552,411.963135 
z"/>
<path fill="#000000" opacity="1.000000" stroke="none" 
	d="
M534.880859,454.152588 
	C537.919861,457.935913 540.689880,461.457703 542.403015,465.694336 
	C543.243103,467.771790 543.460999,469.871796 543.261108,472.050262 
	C543.129578,473.482697 542.528137,474.657654 540.990540,474.943390 
	C539.558472,475.209503 538.872986,474.165161 538.406616,473.068085 
	C530.926208,455.472382 515.530396,447.977325 498.900696,442.022125 
	C495.152252,440.679810 492.375305,438.253754 490.950378,434.391144 
	C498.182587,431.820038 525.092712,443.920105 534.880859,454.152588 
z"/>
<path fill="#000000" opacity="1.000000" stroke="none" 
	d="
M486.413208,393.436096 
	C483.258087,388.881439 480.993530,384.432587 482.007416,378.936798 
	C485.388397,378.822144 485.928864,381.432587 486.782532,383.126648 
	C490.829224,391.157074 497.322998,396.182373 505.431030,399.618103 
	C512.778503,402.731598 520.205811,405.781799 525.478394,412.294189 
	C528.696472,416.268921 530.721436,420.602112 531.005432,425.646454 
	C528.690430,427.141205 527.633179,425.692932 526.814453,424.225037 
	C521.281860,414.305878 512.322693,408.980896 502.003571,405.309448 
	C495.720306,403.073914 490.764709,398.908997 486.413208,393.436096 
z"/>
<path fill="#000000" opacity="1.000000" stroke="none" 
	d="
M598.275818,279.416901 
	C581.816467,283.814880 566.397644,290.468323 549.483398,293.546906 
	C553.036804,283.967255 612.456055,268.745728 625.132751,272.273529 
	C616.030945,276.218933 606.876404,276.156433 598.275818,279.416901 
z"/>
<path fill="#000000" opacity="1.000000" stroke="none" 
	d="
M586.254822,374.359558 
	C586.836853,370.565765 586.431641,366.992035 588.950012,363.227142 
	C591.854004,367.730103 592.854248,372.262604 592.161621,376.984924 
	C591.181763,383.665894 588.852112,390.023315 583.938965,394.803925 
	C576.875000,401.677368 571.588379,409.533173 568.505493,418.890228 
	C568.263611,419.624359 567.679199,420.245636 567.303345,420.841095 
	C564.553772,420.793427 564.731812,418.901306 564.697205,417.289429 
	C564.582947,411.960632 566.221741,407.077301 569.197998,402.769440 
	C571.644897,399.227661 574.380493,395.836700 577.333069,392.703918 
	C582.151672,387.591003 585.649353,381.951416 586.254822,374.359558 
z"/>
<path fill="#000000" opacity="1.000000" stroke="none" 
	d="
M438.422180,305.214813 
	C456.703796,301.539948 474.590912,298.146057 492.719086,303.933899 
	C467.565430,306.762756 442.123291,306.621246 417.355072,312.935608 
	C423.749084,308.751434 430.894867,307.070068 438.422180,305.214813 
z"/>
<path fill="#000000" opacity="1.000000" stroke="none" 
	d="
M603.522217,291.288300 
	C611.043030,291.843689 618.174194,291.832520 624.993286,294.678009 
	C599.733643,295.338013 574.546082,296.508575 549.407898,299.225342 
	C566.536987,291.696381 584.577332,290.037598 603.522217,291.288300 
z"/>
<path fill="#000000" opacity="1.000000" stroke="none" 
	d="
M497.006989,310.993408 
	C474.858398,314.930939 453.368744,321.108551 432.656586,329.927460 
	C431.435150,330.447571 430.239502,331.031677 429.002350,331.509583 
	C428.588928,331.669250 428.083344,331.590210 427.523438,331.626526 
	C433.832428,322.087982 481.163025,304.999176 501.070129,308.104462 
	C501.741150,309.711792 500.439636,310.031311 498.959991,310.596008 
	C497.980347,310.756805 497.493652,310.875092 497.006989,310.993408 
z"/>
<path fill="#000000" opacity="1.000000" stroke="none" 
	d="
M565.626221,536.435303 
	C561.929138,542.892578 557.553406,548.239258 551.806702,552.467102 
	C549.443298,554.205872 547.158630,554.876587 543.276123,553.237244 
	C555.062805,541.421021 563.997559,528.183594 568.672241,512.225830 
	C571.842285,520.853271 569.680603,528.588623 565.626221,536.435303 
z"/>
<path fill="#000000" opacity="1.000000" stroke="none" 
	d="
M576.161743,520.648560 
	C582.666077,508.769470 588.510071,497.056641 590.709961,483.899475 
	C590.845276,483.090118 591.150269,482.304077 591.424866,481.524261 
	C591.850159,480.316467 591.996521,478.691620 593.911865,479.149048 
	C595.398010,479.504028 595.238831,480.887604 595.302551,482.006592 
	C595.931458,493.061615 593.623840,503.461792 588.019409,513.028015 
	C585.844177,516.740967 583.661011,520.502869 580.440002,523.485229 
	C579.464600,524.388428 578.511780,525.559814 577.018127,524.896606 
	C575.198364,524.088684 575.709045,522.475037 576.161743,520.648560 
z"/>
<path fill="#000000" opacity="1.000000" stroke="none" 
	d="
M577.785645,302.861664 
	C591.583618,305.373352 604.586548,308.925079 616.586487,315.830994 
	C594.782288,309.617706 572.253479,307.367004 550.072449,302.868225 
	C559.250549,301.297211 568.302734,301.521790 577.785645,302.861664 
z"/>
<path fill="#000000" opacity="1.000000" stroke="none" 
	d="
M611.478027,362.110168 
	C609.605225,372.412750 605.735962,378.841949 600.486084,380.644623 
	C599.242310,379.115173 599.681641,377.523956 600.455383,376.022827 
	C605.418030,366.394196 606.101440,356.066132 605.713684,345.502136 
	C605.611389,342.715759 604.729797,338.496643 608.614502,338.149994 
	C612.371155,337.814758 611.222717,342.127869 611.676331,344.418945 
	C612.807861,350.133179 612.848206,355.936279 611.478027,362.110168 
z"/>
<path fill="#000000" opacity="1.000000" stroke="none" 
	d="
M450.709473,364.444244 
	C451.220154,362.488586 451.341797,360.745789 454.094208,359.243530 
	C456.405487,366.796082 457.596588,374.499664 461.638458,381.255096 
	C465.554718,387.800659 473.621277,391.204285 475.769470,399.619415 
	C463.150330,397.572144 451.044159,380.329529 450.709473,364.444244 
z"/>
<path fill="#000000" opacity="1.000000" stroke="none" 
	d="
M496.753479,311.239502 
	C497.493652,310.875092 497.980347,310.756805 498.640015,310.716919 
	C500.386108,314.515350 496.913452,314.982941 495.080383,316.050598 
	C482.881592,323.155701 470.537506,330.010895 458.316071,337.077789 
	C454.685791,339.177032 451.297729,341.695129 447.276001,343.199097 
	C461.244995,328.872772 477.956909,318.774719 496.753479,311.239502 
z"/>
<path fill="#000000" opacity="1.000000" stroke="none" 
	d="
M545.730591,323.746521 
	C548.266846,321.545563 549.224121,322.616882 549.279846,325.106354 
	C549.364868,328.902649 547.318481,331.721252 544.673523,334.122620 
	C536.402832,341.631805 522.741333,342.951294 513.101868,337.240051 
	C510.900330,335.935699 510.900330,335.935699 510.053375,332.611267 
	C512.240112,330.759735 514.049500,332.721436 515.953918,333.278870 
	C524.602173,335.810364 532.928467,336.212067 540.525757,330.182861 
	C542.677612,328.475189 544.086975,326.274872 545.730591,323.746521 
z"/>
<path fill="#000000" opacity="1.000000" stroke="none" 
	d="
M430.039551,213.685532 
	C433.462921,212.793625 436.478088,211.944519 439.564178,213.650238 
	C436.778534,217.629562 423.040955,221.522827 418.799438,219.305573 
	C421.683319,215.744827 425.998627,215.365463 430.039551,213.685532 
z"/>
<path fill="#000000" opacity="1.000000" stroke="none" 
	d="
M568.985046,188.278564 
	C566.676819,188.150925 564.563232,188.543823 563.333862,185.761826 
	C568.844177,183.747177 574.050659,181.244675 580.998779,183.977661 
	C577.341248,187.618805 572.997314,187.006195 568.985046,188.278564 
z"/>
<path fill="#000000" opacity="1.000000" stroke="none" 
	d="
M652.303589,795.212219 
	C678.026733,783.314819 703.369507,771.489624 728.846436,759.960999 
	C733.302734,757.944519 734.887085,755.422546 734.810242,750.531311 
	C734.517456,731.879700 734.613831,713.220581 734.722900,694.565186 
	C734.744629,690.838745 734.009766,687.969543 730.888000,685.456482 
	C727.448914,682.687927 725.929993,678.835266 727.759155,674.298218 
	C729.539124,669.883362 732.626282,666.871704 737.499817,667.070496 
	C742.198975,667.262024 746.167969,669.395569 748.279968,673.972168 
	C750.544128,678.878235 748.642151,682.924500 744.945801,685.951782 
	C742.007874,688.357788 741.220093,691.025146 741.240601,694.607117 
	C741.356750,714.928223 741.200623,735.251099 741.365906,755.571533 
	C741.398926,759.638489 740.013672,762.033691 736.345642,763.725281 
	C707.326233,777.107239 678.358398,790.601074 649.366699,804.043091 
	C648.314819,804.530762 647.202881,804.937500 646.076782,805.204163 
	C644.560486,805.563354 642.925293,805.593689 642.121826,803.979248 
	C641.257080,802.241516 641.874084,800.637695 643.535889,799.714783 
	C646.296753,798.181396 649.152771,796.819397 652.303589,795.212219 
M734.983521,681.626099 
	C737.643372,683.357117 740.024719,682.924927 741.853760,680.433899 
	C743.156799,678.659241 742.987671,676.628113 741.575195,674.965027 
	C739.713928,672.773254 737.359314,671.512085 734.733582,673.589600 
	C731.865356,675.859131 731.852051,678.526855 734.983521,681.626099 
z"/>
<path fill="#000000" opacity="1.000000" stroke="none" 
	d="
M376.618774,794.723145 
	C378.876648,795.593933 380.046448,794.093750 381.432892,793.289612 
	C386.806824,790.173096 393.185760,791.555420 396.307892,796.539917 
	C399.535950,801.693604 398.231873,808.370178 393.377625,811.542664 
	C388.002655,815.055298 381.623444,813.795166 378.473999,807.793518 
	C376.177002,803.416260 372.743774,801.216553 368.554016,799.303101 
	C341.449554,786.925110 314.435730,774.347839 287.292053,762.057068 
	C282.419739,759.850891 280.722839,756.576538 280.838806,751.521118 
	C281.003021,744.362915 280.680786,737.194275 280.801605,730.034058 
	C280.848633,727.247681 280.034912,725.491882 277.634949,723.873657 
	C272.126831,720.159424 271.030853,713.536377 274.754608,708.772400 
	C278.744537,703.667969 284.816925,702.838745 289.693573,706.732422 
	C294.181213,710.315369 295.198792,718.083740 291.162537,722.407471 
	C288.713745,725.030640 288.163086,727.721619 288.204346,730.975159 
	C288.286621,737.471130 288.276276,743.969482 288.203613,750.465698 
	C288.175476,752.981567 288.638550,755.042908 291.197327,756.197571 
	C319.565643,768.998108 347.589233,782.561951 376.618774,794.723145 
M391.546204,799.859070 
	C389.933380,797.990112 388.109070,796.640808 385.568268,798.060486 
	C383.403870,799.269897 381.801178,801.088074 382.755127,803.679260 
	C383.639679,806.081848 385.398499,808.213135 388.334015,807.422241 
	C391.786499,806.492065 392.867249,803.914795 391.546204,799.859070 
M287.736450,715.385742 
	C286.639313,710.820679 283.743195,709.102051 280.642426,711.225037 
	C279.049561,712.315491 278.183716,713.847961 278.445984,715.844788 
	C278.718811,717.922058 280.143311,719.077820 282.000153,719.433594 
	C284.721313,719.955017 286.848206,719.051941 287.736450,715.385742 
z"/>
</svg>